<svg width="100" height="50" viewBox="0 0 180 90" fill="none" xmlns="http://www.w3.org/2000/svg">
  <path
    d="M0.46875 15.375L0.6875 14.8438C2.375 14.8438 4.0625 14.8646 5.75 14.9062H6.78125C7.09375 14.9062 7.4375 14.8958 7.8125 14.875C9.16667 14.8125 11.6146 14.7812 15.1562 14.7812C15.8646 14.7812 16.5521 14.7917 17.2188 14.8125C17.8854 14.8125 18.5312 14.8229 19.1562 14.8438C19.2812 14.9062 19.375 15 19.4375 15.125L19.375 15.625C19.25 15.8333 18.9375 15.9375 18.4375 15.9375H18.1875C17.6042 15.9167 16.6458 15.9688 15.3125 16.0938C13.9792 16.1979 13.1042 16.4062 12.6875 16.7188C12.4167 16.9479 12.2812 17.25 12.2812 17.625C12.2812 18.4375 12.625 19.6562 13.3125 21.2812L18.0625 32.3125L19.7188 35.9688C21.3229 39.8438 22.9062 43.8021 24.4688 47.8438C24.6354 48.2812 24.7917 48.6771 24.9375 49.0312L27.0312 43.9062C28.1146 41.3229 29.2083 38.5729 30.3125 35.6562L32.4688 29.7812C32.5104 29.6562 32.625 29.2396 32.8125 28.5312C34.8333 23.0104 35.8438 19.5208 35.8438 18.0625C35.8438 17.75 35.6979 17.4375 35.4062 17.125C35.1354 16.7917 34.6875 16.5208 34.0625 16.3125C33.8125 16.2292 33 16.1042 31.625 15.9375L29.3125 15.6562C29.125 15.4479 29.0312 15.2708 29.0312 15.125L29.125 14.875L39.25 14.7812H42.5938C43.7188 14.7812 44.4896 14.8542 44.9062 15L44.9375 15.25C44.9375 15.4167 44.875 15.6354 44.75 15.9062C44.25 16.0729 43.7917 16.1771 43.375 16.2188C41.625 16.4271 40.5417 16.6771 40.125 16.9688C39.7083 17.2396 39.2708 17.8333 38.8125 18.75L30.5938 39.0625C28.0312 45.1667 26.2083 49.8958 25.125 53.25L24.2188 55.9688C23.9479 56.1354 23.7188 56.2188 23.5312 56.2188C23.3021 56.2188 23.0521 56.1979 22.7812 56.1562C20.3021 49.7396 18.2812 44.7812 16.7188 41.2812L7.15625 19.5938C6.46875 18.3021 5.94792 17.5312 5.59375 17.2812C5.26042 17.0104 4.0625 16.6354 2 16.1562C1.27083 15.9896 0.864583 15.8854 0.78125 15.8438C0.635417 15.7396 0.53125 15.5833 0.46875 15.375ZM45.7188 54C46.1771 53.8125 46.6458 53.6979 47.125 53.6562C50.3125 53.4479 52.1354 53.0729 52.5938 52.5312C53.0521 51.9688 53.2812 49.2917 53.2812 44.5L53.25 41.2188V37.7812L53.125 34L53.1875 31.7812L53.1562 29.3438V26.4688L53.0938 25.1875L53.1562 23.5625C53.1771 23.1875 53.1875 22.75 53.1875 22.25C53.1875 20.9375 53.125 19.5521 53 18.0938C52.9167 17.8021 52.8021 17.5208 52.6562 17.25C51.8854 16.8542 50.6354 16.5938 48.9062 16.4688C47.1979 16.3229 46.2292 16.1667 46 16C45.8333 15.875 45.7396 15.5521 45.7188 15.0312H48.3438L56.625 15.2188C58.75 15.2188 61.5833 15.1562 65.125 15.0312C65.125 15.3646 65.1042 15.6771 65.0625 15.9688C64.6458 16.0729 63.9479 16.1875 62.9688 16.3125C60.9896 16.5417 59.7812 16.7604 59.3438 16.9688C59.0729 17.0729 58.875 17.25 58.75 17.5C58.5417 17.875 58.4167 18.5729 58.375 19.5938L58.2188 23.625L58.3438 37.5312V43.0312C58.3021 44.7604 58.2812 45.9375 58.2812 46.5625C58.2812 48.8958 58.3333 50.3854 58.4375 51.0312C58.5625 51.6771 58.7604 52.1458 59.0312 52.4375C59.3229 52.7083 59.7917 52.9271 60.4375 53.0938C61.3958 53.3229 62.1458 53.4479 62.6875 53.4688C63.8542 53.5104 64.5938 53.6771 64.9062 53.9688C64.9688 54.2396 65 54.4688 65 54.6562V54.9062C63.1042 54.9688 61.7083 55 60.8125 55C60.2917 55 59.3646 54.9688 58.0312 54.9062L53.7188 54.9688L46.375 54.9375H45.7812L45.7188 54ZM67.9062 16.7812L67.875 15.2812C71.1042 15.2812 73.4688 15.1979 74.9688 15.0312C75.5521 14.9688 75.9583 14.9375 76.1875 14.9375C76.375 14.9375 76.6562 14.9479 77.0312 14.9688C77.9062 15.6979 78.7188 16.5312 79.4688 17.4688C79.6354 17.6562 79.8229 17.8646 80.0312 18.0938L86.625 25.375L87.5625 26.5C88.8958 28.0625 90.1042 29.3958 91.1875 30.5C92.2917 31.6042 94.4271 33.9062 97.5938 37.4062L105.062 45.6875C105.792 46.5 106.729 47.5104 107.875 48.7188L107.906 48.2188C107.781 45.3229 107.719 43.7917 107.719 43.625L107.844 41.75L107.781 38.8125V37.4688C107.781 36.6146 107.708 33.9792 107.562 29.5625C107.542 28.9583 107.458 27.8229 107.312 26.1562C107.167 24.4688 107.094 22.9896 107.094 21.7188C107.094 19.4271 106.958 18.0938 106.688 17.7188C106.5 17.4479 105.615 17.1667 104.031 16.875C103.656 16.8542 103.073 16.7917 102.281 16.6875C101.344 16.6458 100.792 16.5938 100.625 16.5312C100.458 16.4688 100.292 16.2917 100.125 16C100.167 15.6667 100.26 15.3542 100.406 15.0625C100.969 14.8958 101.521 14.8125 102.062 14.8125C102.646 14.8125 103.365 14.8854 104.219 15.0312C105.094 15.1771 105.875 15.25 106.562 15.25C107.521 15.25 109.01 15.1875 111.031 15.0625C112.177 14.9792 112.969 14.9375 113.406 14.9375H113.938L113.875 15.9062C113.542 16.0521 113.083 16.1458 112.5 16.1875C111.917 16.2083 111.375 16.2917 110.875 16.4375C110.125 16.6667 109.677 16.8646 109.531 17.0312C109.031 17.5729 108.781 18.125 108.781 18.6875L109.125 28.5625L109.375 33.0938L109.344 34.4062L109.531 40.6875C109.656 44.9792 109.719 48.7083 109.719 51.875C109.719 52.5625 109.677 54.0521 109.594 56.3438L108.125 56.4688C107.396 55.6354 104.885 53.0104 100.594 48.5938C99.5938 47.5729 98.9167 46.8542 98.5625 46.4375L95.875 43.3438C94.8333 42.1979 94.1562 41.4688 93.8438 41.1562C93.5312 40.8438 93.3021 40.6146 93.1562 40.4688C90.8854 37.8854 87.9375 34.6562 84.3125 30.7812C83.3333 29.7396 81.8958 28.1146 80 25.9062C78.8125 24.5104 78.0625 23.6562 77.75 23.3438C77.4375 23.0312 77.0104 22.6771 76.4688 22.2812L76.375 23.3438C76.375 27.4062 76.4792 33.0104 76.6875 40.1562L76.9062 50.5C76.9271 51.375 76.9792 52.2188 77.0625 53.0312L78.1562 53.2812C80.1354 53.4688 82.0833 53.75 84 54.125C84.1458 54.25 84.2708 54.3438 84.375 54.4062L84.3438 55.5938C84.0104 55.6979 83.7396 55.75 83.5312 55.75C83.3021 55.75 83.0208 55.7292 82.6875 55.6875C80.625 55.5208 78.1146 55.4375 75.1562 55.4375C73.0729 55.4375 71.2396 55.4896 69.6562 55.5938L69.2188 55.625C69.0312 55.625 68.7604 55.6042 68.4062 55.5625L68.375 54.625L69.1875 54.25L70.6562 54.0312C71.9688 53.8438 72.9271 53.6354 73.5312 53.4062C73.9271 53.2604 74.25 53.0417 74.5 52.75C74.7292 51.3125 74.8438 49.2083 74.8438 46.4375C74.8438 45.1458 74.8125 42.7812 74.75 39.3438V35.0938L74.6875 26.2188C74.6458 22.2604 74.5104 19.9271 74.2812 19.2188C74.1562 18.8438 73.8958 18.5104 73.5 18.2188C72.7083 17.6562 71.6667 17.3021 70.375 17.1562C69.1042 17.0104 68.2812 16.8854 67.9062 16.7812ZM153.469 16.75C153.719 18.3542 153.844 20 153.844 21.6875C153.844 22.0208 153.833 22.4688 153.812 23.0312C153.521 23.0938 153.302 23.125 153.156 23.125C153.031 23.125 152.854 23.1042 152.625 23.0625C151.75 20.625 150.323 18.75 148.344 17.4375C146.365 16.125 143.917 15.4688 141 15.4688C139.458 15.4688 138.156 15.6458 137.094 16C135.219 16.6458 133.573 17.5417 132.156 18.6875C130.74 19.8125 129.542 21.1667 128.562 22.75C127.583 24.3125 126.802 26.2188 126.219 28.4688C125.656 30.6979 125.375 32.9792 125.375 35.3125C125.375 39.7708 126.052 43.4583 127.406 46.375C128.76 49.2708 130.615 51.3438 132.969 52.5938C135.323 53.8229 137.698 54.4375 140.094 54.4375L141.562 54.4062C143.229 54.1979 144.365 54 144.969 53.8125C146.49 53.375 147.74 52.8646 148.719 52.2812C149.719 51.6771 150.688 50.8333 151.625 49.75C152.583 48.6667 153.396 47.4062 154.062 45.9688L154.438 45.8438C154.542 45.8438 154.698 45.9062 154.906 46.0312C154.885 46.5312 154.865 46.8542 154.844 47C153.969 50.5208 153.333 52.9271 152.938 54.2188C152.604 54.3021 152.188 54.4271 151.688 54.5938C149.25 55.4271 145.99 55.8438 141.906 55.8438C138.615 55.8438 136.146 55.6146 134.5 55.1562C132.875 54.7188 131.094 54.0312 129.156 53.0938C127.24 52.1354 125.552 50.875 124.094 49.3125C122.635 47.75 121.458 45.7812 120.562 43.4062C119.667 41.0104 119.219 38.4062 119.219 35.5938C119.219 32.9271 119.573 30.6042 120.281 28.625C120.99 26.625 122.083 24.6042 123.562 22.5625C125.042 20.5208 126.781 18.8229 128.781 17.4688C130.802 16.1146 133.042 15.1562 135.5 14.5938C137.229 14.2188 139.677 14.0312 142.844 14.0312C145.156 14.0312 147.333 14.3438 149.375 14.9688C151.417 15.5729 152.781 16.1667 153.469 16.75ZM158.469 54C158.927 53.8125 159.396 53.6979 159.875 53.6562C163.062 53.4479 164.885 53.0729 165.344 52.5312C165.802 51.9688 166.031 49.2917 166.031 44.5L166 41.2188V37.7812L165.875 34L165.938 31.7812L165.906 29.3438V26.4688L165.844 25.1875L165.906 23.5625C165.927 23.1875 165.938 22.75 165.938 22.25C165.938 20.9375 165.875 19.5521 165.75 18.0938C165.667 17.8021 165.552 17.5208 165.406 17.25C164.635 16.8542 163.385 16.5938 161.656 16.4688C159.948 16.3229 158.979 16.1667 158.75 16C158.583 15.875 158.49 15.5521 158.469 15.0312H161.094L169.375 15.2188C171.5 15.2188 174.333 15.1562 177.875 15.0312C177.875 15.3646 177.854 15.6771 177.812 15.9688C177.396 16.0729 176.698 16.1875 175.719 16.3125C173.74 16.5417 172.531 16.7604 172.094 16.9688C171.823 17.0729 171.625 17.25 171.5 17.5C171.292 17.875 171.167 18.5729 171.125 19.5938L170.969 23.625L171.094 37.5312V43.0312C171.052 44.7604 171.031 45.9375 171.031 46.5625C171.031 48.8958 171.083 50.3854 171.188 51.0312C171.312 51.6771 171.51 52.1458 171.781 52.4375C172.073 52.7083 172.542 52.9271 173.188 53.0938C174.146 53.3229 174.896 53.4479 175.438 53.4688C176.604 53.5104 177.344 53.6771 177.656 53.9688C177.719 54.2396 177.75 54.4688 177.75 54.6562V54.9062C175.854 54.9688 174.458 55 173.562 55C173.042 55 172.115 54.9688 170.781 54.9062L166.469 54.9688L159.125 54.9375H158.531L158.469 54Z"
    fill="#C18E50"/>
  <path
    d="M61.457 84.1758L61.4688 83.918C61.7344 83.7695 62.043 83.6758 62.3945 83.6367C62.9492 83.5664 63.3008 83.4961 63.4492 83.4258C63.5977 83.3477 63.7031 83.2422 63.7656 83.1094C63.875 82.8516 63.9297 82.5898 63.9297 82.3242L63.9062 81.4336L63.918 80.6133L63.8945 79.6523C63.8945 79.2539 63.9062 78.7578 63.9297 78.1641C63.9531 77.5625 63.9648 77.2422 63.9648 77.2031V74.0039C63.9648 73.4961 63.9766 72.9492 64 72.3633C64.0234 71.7695 64.0352 71.3594 64.0352 71.1328C64.0352 70.4609 64.0195 70.0703 63.9883 69.9609C63.957 69.8516 63.8984 69.7734 63.8125 69.7266C63.7266 69.6797 63.4453 69.6367 62.9688 69.5977C62.6016 69.5664 62.3477 69.5391 62.207 69.5156C62.168 69.4297 62.1484 69.3594 62.1484 69.3047C62.1484 69.2422 62.1523 69.168 62.1602 69.082C62.3477 69.0664 62.4922 69.0586 62.5938 69.0586L63.6953 69.0703C64.4766 69.0703 65.3047 69.0391 66.1797 68.9766C66.6094 68.9453 67.2578 68.918 68.125 68.8945C68.1406 68.9648 68.1484 69.0312 68.1484 69.0938C68.1484 69.1719 68.1289 69.2344 68.0898 69.2812C68.0586 69.3203 68 69.3477 67.9141 69.3633C66.8906 69.4492 66.2852 69.5781 66.0977 69.75C65.918 69.9141 65.8281 70.3398 65.8281 71.0273C65.8281 72.293 65.8477 73.5977 65.8867 74.9414L65.9336 76.043C65.9727 76.0742 66.4805 76.1133 67.457 76.1602C67.7227 76.1758 67.8789 76.1836 67.9258 76.1836L69.6484 76.1602L70.7852 76.1953L73.7617 76.1016C74.1289 76.0938 74.3516 76.0781 74.4297 76.0547C74.4766 74.6953 74.5 73.3789 74.5 72.1055C74.5 70.8789 74.4727 70.1562 74.418 69.9375C74.3867 69.8047 74.332 69.7148 74.2539 69.668C74.207 69.6445 73.8008 69.582 73.0352 69.4805C72.9023 69.4648 72.7773 69.4453 72.6602 69.4219C72.6211 69.3047 72.6016 69.1719 72.6016 69.0234C72.8672 68.9844 73.0352 68.9648 73.1055 68.9648L73.8789 69.0117C74.5898 69.0508 75.3047 69.0703 76.0234 69.0703C76.4844 69.0703 77.25 69.0312 78.3203 68.9531C78.3125 69.1094 78.293 69.25 78.2617 69.375C77.9648 69.4922 77.6094 69.5664 77.1953 69.5977C76.9297 69.6133 76.707 69.6562 76.5273 69.7266C76.3789 69.8359 76.3047 70.0586 76.3047 70.3945C76.3047 70.4727 76.3086 70.5586 76.3164 70.6523C76.3242 70.9336 76.3281 71.1172 76.3281 71.2031V72.5508L76.3398 73.3945L76.3164 74.4844L76.3281 76.5234L76.3047 78.4453C76.3047 78.8281 76.3164 79.4258 76.3398 80.2383L76.3281 81.8203C76.3281 82.3516 76.375 82.7305 76.4688 82.957C76.5156 83.0664 76.5938 83.1445 76.7031 83.1914L77.6523 83.4023C78.1211 83.5195 78.3984 83.6172 78.4844 83.6953C78.5781 83.7656 78.625 83.8516 78.625 83.9531L78.5898 84.0938L78.5312 84.1055C78.4922 84.1055 78.4414 84.0977 78.3789 84.082C77.5273 83.9258 76.6328 83.8477 75.6953 83.8477C74.9609 83.8477 74.4375 83.8594 74.125 83.8828C73.8203 83.9062 73.1797 83.9922 72.2031 84.1406C72.1875 84.0391 72.1797 83.9648 72.1797 83.918C72.1797 83.8633 72.1875 83.7891 72.2031 83.6953C72.4453 83.5547 72.8281 83.457 73.3516 83.4023C73.7422 83.3633 74.0508 83.2383 74.2773 83.0273C74.4258 82.8867 74.5 82.6797 74.5 82.4062L74.4883 80.7188C74.5117 80.2109 74.5234 79.9336 74.5234 79.8867C74.5234 79.2227 74.5117 78.2539 74.4883 76.9805C74.4648 76.8711 74.4219 76.8047 74.3594 76.7812C74.1484 76.7109 73.1094 76.7266 71.2422 76.8281C70.8672 76.8516 70.5859 76.8633 70.3984 76.8633C70.2109 76.8633 69.8164 76.8555 69.2148 76.8398C68.6211 76.8164 68.0703 76.8047 67.5625 76.8047C67.2891 76.8047 67.0586 76.8086 66.8711 76.8164C66.5117 76.8242 66.3125 76.8281 66.2734 76.8281C66.0938 76.8281 65.9688 76.8633 65.8984 76.9336C65.8359 77.0039 65.8047 77.1328 65.8047 77.3203L65.8164 78.1406C65.8164 78.2734 65.7969 79.0117 65.7578 80.3555C65.75 80.6289 65.7461 80.8555 65.7461 81.0352C65.7461 82.1055 65.7852 82.8164 65.8633 83.168C65.9023 83.332 65.9727 83.4453 66.0742 83.5078C66.1445 83.5547 66.4492 83.6367 66.9883 83.7539C67.3477 83.832 67.6211 83.9062 67.8086 83.9766L67.8789 84.0938C67.8789 84.1328 67.8633 84.1641 67.832 84.1875C67.7852 84.2266 67.7188 84.2461 67.6328 84.2461C67.5703 84.2461 67.4961 84.2422 67.4102 84.2344C67.3242 84.2344 67.1562 84.2305 66.9062 84.2227C66.5078 84.2148 66.0117 84.1875 65.418 84.1406C65.0352 84.1094 64.6953 84.0938 64.3984 84.0938C63.8984 84.0938 63.0977 84.1172 61.9961 84.1641C61.7852 84.1719 61.6055 84.1758 61.457 84.1758ZM80.3594 76.5117C80.3594 75.7148 80.4531 75.0078 80.6406 74.3906C80.8359 73.7656 81.1602 73.0898 81.6133 72.3633C82.0664 71.6367 82.6133 71.0312 83.2539 70.5469C83.8945 70.0547 84.7812 69.6211 85.9141 69.2461C86.7109 68.9883 87.7188 68.8594 88.9375 68.8594C89.7578 68.8594 90.5586 68.9688 91.3398 69.1875C92.1289 69.4062 92.8438 69.7109 93.4844 70.1016C94.125 70.4922 94.7656 71.0938 95.4062 71.9062C95.8516 72.4688 96.1875 73.0742 96.4141 73.7227C96.7109 74.5742 96.8594 75.4531 96.8594 76.3594C96.8594 77.3906 96.7578 78.2461 96.5547 78.9258C96.3594 79.6055 96.0273 80.2773 95.5586 80.9414C95.1914 81.457 94.5625 82.0508 93.6719 82.7227C93.0781 83.1758 92.3398 83.543 91.457 83.8242C90.5742 84.0977 89.6211 84.2344 88.5977 84.2344C87.5586 84.2344 86.6328 84.1133 85.8203 83.8711C85.0078 83.6289 84.3281 83.3359 83.7812 82.9922C83.2422 82.6406 82.6836 82.125 82.1055 81.4453C81.5352 80.7656 81.1016 80.0156 80.8047 79.1953C80.5078 78.375 80.3594 77.4805 80.3594 76.5117ZM88.4922 83.8008C89.1484 83.8008 89.8281 83.7109 90.5312 83.5312C91.2422 83.3438 91.8711 83.0391 92.418 82.6172C92.9648 82.1875 93.3906 81.7031 93.6953 81.1641C94.0078 80.6172 94.2578 79.918 94.4453 79.0664C94.6328 78.2148 94.7266 77.3633 94.7266 76.5117C94.7266 75.4492 94.5703 74.3984 94.2578 73.3594C94.0156 72.5703 93.6211 71.8672 93.0742 71.25C92.5273 70.625 91.8672 70.1445 91.0938 69.8086C90.3203 69.4648 89.4961 69.293 88.6211 69.293C87.9102 69.293 87.2148 69.4102 86.5352 69.6445C85.8555 69.8789 85.2969 70.1797 84.8594 70.5469C84.4219 70.9062 84.0156 71.4219 83.6406 72.0938C83.2656 72.7578 82.9805 73.4922 82.7852 74.2969C82.5898 75.1016 82.4922 75.8125 82.4922 76.4297C82.4922 77.0781 82.5898 77.8125 82.7852 78.6328C82.9805 79.4531 83.2461 80.1641 83.582 80.7656C83.9258 81.3672 84.3438 81.9023 84.8359 82.3711C85.3359 82.832 85.8945 83.1875 86.5117 83.4375C87.1289 83.6797 87.7891 83.8008 88.4922 83.8008ZM98.4297 70.7578L98.9102 68.9883C98.9414 68.7539 98.9844 68.6055 99.0391 68.543C99.0938 68.4727 99.1562 68.4375 99.2266 68.4375C99.3672 68.4375 99.5273 68.6055 99.707 68.9414C99.8398 69.1836 99.9492 69.3398 100.035 69.4102C100.121 69.4727 100.246 69.5156 100.41 69.5391L100.527 69.5273L101.031 69.5742L103.797 69.6094L107.066 69.5977H108.027L109.844 69.5625C109.922 69.5625 110.02 69.5703 110.137 69.5859C110.668 69.6328 110.996 69.6562 111.121 69.6562C111.238 69.6562 111.332 69.6172 111.402 69.5391C111.426 69.5078 111.555 69.2422 111.789 68.7422C111.891 68.5156 112.016 68.4023 112.164 68.4023C112.227 68.4023 112.305 68.418 112.398 68.4492C112.438 68.6055 112.457 68.7461 112.457 68.8711L112.445 69.3398L112.457 70.3359C112.457 70.5781 112.438 71.3594 112.398 72.6797C112.398 72.7656 112.383 72.8438 112.352 72.9141C112.266 72.9688 112.191 72.9961 112.129 72.9961C112.066 72.9961 112.012 72.9688 111.965 72.9141C111.918 72.8516 111.859 72.668 111.789 72.3633C111.633 71.6602 111.438 71.1562 111.203 70.8516C111.047 70.6562 110.82 70.5156 110.523 70.4297C110.234 70.3438 109.535 70.3008 108.426 70.3008C107.535 70.3008 106.875 70.3164 106.445 70.3477C106.43 70.6602 106.422 70.9453 106.422 71.2031L106.516 78.4805C106.516 78.7695 106.5 79.3164 106.469 80.1211L106.48 81.6797L106.469 82.5469C106.469 82.8203 106.516 83.0156 106.609 83.1328C106.703 83.25 106.957 83.3633 107.371 83.4727C108.09 83.6523 108.57 83.7617 108.812 83.8008C108.961 83.8164 109.082 83.8477 109.176 83.8945V84.2461L107.512 84.1992C106.598 84.1914 105.91 84.1719 105.449 84.1406L103.738 84.2227L102.484 84.293C102.133 84.293 101.918 84.2852 101.84 84.2695L101.676 84.1992C101.691 84.0195 101.727 83.9062 101.781 83.8594C101.836 83.8047 101.98 83.7617 102.215 83.7305C102.543 83.6836 102.93 83.6016 103.375 83.4844C103.82 83.3594 104.113 83.2344 104.254 83.1094C104.332 83.0391 104.387 82.9219 104.418 82.7578C104.488 82.4141 104.523 81.7383 104.523 80.7305V78.7383L104.477 74.3906L104.43 73.4531L104.418 70.3242C103.926 70.2695 103.297 70.2422 102.531 70.2422C101.406 70.2422 100.723 70.3125 100.48 70.4531C100.098 70.6719 99.5273 71.3125 98.7695 72.375C98.5195 72.7734 98.3008 72.9727 98.1133 72.9727L98.0078 72.9492C97.9766 72.9023 97.9609 72.8594 97.9609 72.8203C97.9609 72.7266 98.0234 72.4453 98.1484 71.9766C98.3047 71.375 98.3984 70.9688 98.4297 70.7578ZM113.359 83.8125C113.438 83.7422 113.504 83.6992 113.559 83.6836C113.691 83.6445 113.918 83.6133 114.238 83.5898C114.996 83.543 115.465 83.4727 115.645 83.3789C115.754 83.2227 115.809 83.0039 115.809 82.7227L115.797 81.9023L115.809 78.9258L115.785 77.5195L115.797 74.5781L115.738 71.2383C115.73 70.4414 115.68 69.9922 115.586 69.8906C115.445 69.7422 115.027 69.6562 114.332 69.6328C114.035 69.625 113.773 69.6016 113.547 69.5625C113.445 69.5078 113.395 69.4375 113.395 69.3516C113.395 69.2891 113.414 69.2148 113.453 69.1289C113.523 69.0898 113.586 69.0703 113.641 69.0703C113.75 69.0703 113.883 69.0742 114.039 69.082C114.5 69.1211 114.977 69.1406 115.469 69.1406L116.336 69.1172L118.398 69.1641C119.43 69.1641 120.234 69.1523 120.812 69.1289C121.391 69.1055 121.781 69.0938 121.984 69.0938C122.164 69.0938 122.609 69.1094 123.32 69.1406L124.984 69.1289L125.184 69.1641L126.156 69.1289L126.273 69.1875C126.312 69.25 126.34 69.3164 126.355 69.3867C126.355 69.4961 126.336 69.6641 126.297 69.8906C126.266 70.1172 126.25 70.2578 126.25 70.3125C126.25 71.125 126.277 71.8125 126.332 72.375C126.324 72.4219 126.301 72.4531 126.262 72.4688C126.176 72.4688 126.098 72.457 126.027 72.4336C125.941 72.2852 125.824 72.0234 125.676 71.6484C125.535 71.2734 125.32 70.8398 125.031 70.3477C124.836 70.0195 124.684 69.8242 124.574 69.7617C124.465 69.6992 124.238 69.668 123.895 69.668C123.824 69.668 123.469 69.6602 122.828 69.6445C122.656 69.6367 122.488 69.6328 122.324 69.6328L118.984 69.7031H118.691C118.262 69.7031 118.004 69.7578 117.918 69.8672C117.785 70.0547 117.719 70.6055 117.719 71.5195C117.719 71.6133 117.738 72.5508 117.777 74.332V75.9609C117.863 75.9844 117.957 75.9961 118.059 75.9961H118.258C118.391 75.9961 118.586 76 118.844 76.0078C119.25 76.0234 119.523 76.0312 119.664 76.0312C119.758 76.0312 119.84 76.0273 119.91 76.0195C120.754 75.9883 121.84 75.9727 123.168 75.9727C123.582 75.9023 123.824 75.8203 123.895 75.7266C124.012 75.5859 124.098 75.2188 124.152 74.625C124.215 74.0312 124.348 73.6953 124.551 73.6172C124.652 73.6172 124.746 73.6367 124.832 73.6758C124.848 73.7383 124.855 73.7969 124.855 73.8516C124.855 73.9062 124.848 73.9961 124.832 74.1211C124.793 74.4102 124.773 75.3164 124.773 76.8398C124.773 77.2461 124.793 77.6992 124.832 78.1992C124.879 78.6992 124.902 78.9688 124.902 79.0078C124.902 79.0781 124.891 79.1719 124.867 79.2891C124.805 79.3203 124.754 79.3359 124.715 79.3359H124.633C124.508 79.1172 124.387 78.7773 124.27 78.3164C124.066 77.5273 123.852 77.0352 123.625 76.8398C123.406 76.6367 123.047 76.5352 122.547 76.5352C122.438 76.5352 122.238 76.543 121.949 76.5586C121.66 76.5664 121.23 76.5703 120.66 76.5703H119.898C118.812 76.5703 118.102 76.5938 117.766 76.6406L117.754 77.0273L117.766 79.1836L117.754 80.543L117.766 81.8672C117.773 82.6641 117.824 83.125 117.918 83.25C118.051 83.4219 118.34 83.5078 118.785 83.5078L119.5 83.4961C119.562 83.4961 119.805 83.5039 120.227 83.5195C120.656 83.5273 121.184 83.5312 121.809 83.5312C123.316 83.5312 124.32 83.4688 124.82 83.3438C125.32 83.2109 125.73 82.9805 126.051 82.6523C126.379 82.3242 126.789 81.6172 127.281 80.5312C127.43 80.2109 127.578 80.0508 127.727 80.0508C127.797 80.0508 127.875 80.082 127.961 80.1445C127.734 80.918 127.605 81.4258 127.574 81.668C127.488 82.2148 127.438 82.7734 127.422 83.3438C127.422 83.6016 127.359 83.8164 127.234 83.9883H126.977L123.684 84.0234L122.207 84.0117L118.691 84.0586H117.262C117.082 84.0586 116.914 84.0625 116.758 84.0703C115.352 84.1328 114.316 84.1641 113.652 84.1641C113.535 84.1641 113.453 84.1445 113.406 84.1055C113.367 84.0664 113.348 84.0078 113.348 83.9297L113.359 83.8125ZM128.652 84.0703C128.66 83.9531 128.691 83.8477 128.746 83.7539C129.355 83.5898 129.949 83.4805 130.527 83.4258C130.91 83.3945 131.156 83.3086 131.266 83.168C131.344 83.0664 131.391 82.6914 131.406 82.043L131.488 78.9492L131.477 76.8516L131.488 74.1094V73.3828C131.496 71.7344 131.488 70.707 131.465 70.3008C131.457 70.2227 131.426 70.1133 131.371 69.9727C131.168 69.8789 130.996 69.8164 130.855 69.7852C130.723 69.7539 130.113 69.6406 129.027 69.4453C129.02 69.3594 129.016 69.2969 129.016 69.2578C129.016 69.2109 129.02 69.1484 129.027 69.0703C129.176 69.0703 129.418 69.0781 129.754 69.0938L131.535 69.1523L132.566 69.1758L132.871 69.1641C132.91 69.1641 133.023 69.1719 133.211 69.1875C133.672 69.1875 133.938 69.1836 134.008 69.1758L134.945 69.1055C135.578 69.1055 136.023 69.1172 136.281 69.1406C136.273 69.2812 136.246 69.4336 136.199 69.5977C136.113 69.6133 135.707 69.6367 134.98 69.668C134.254 69.6914 133.836 69.7344 133.727 69.7969C133.547 69.8984 133.457 70.2109 133.457 70.7344C133.457 70.8594 133.449 71.1133 133.434 71.4961V72.1992L133.445 74.3672V75.1055L133.469 78.9844L133.434 82.2891L133.445 83.0156C133.445 83.25 133.484 83.3945 133.562 83.4492C133.758 83.457 134.332 83.4648 135.285 83.4727H136.082L138.109 83.4023C138.641 83.3867 139.02 83.3359 139.246 83.25C139.473 83.1562 139.852 82.8906 140.383 82.4531C140.703 82.1719 140.953 81.8828 141.133 81.5859C141.172 81.5234 141.238 81.4297 141.332 81.3047C141.48 81.1016 141.68 80.6953 141.93 80.0859H142.316C142.27 80.3672 142.219 80.6328 142.164 80.8828C141.938 81.9844 141.781 82.9023 141.695 83.6367C141.68 83.793 141.664 83.9375 141.648 84.0703L137.266 83.9414C133.5 83.9414 131.266 83.9766 130.562 84.0469C130.344 84.0625 130.113 84.0703 129.871 84.0703H128.652Z"
    fill="#C18E50"/>
</svg>
